<svg width="117" height="40" viewBox="0 0 117 40" fill="none" xmlns="http://www.w3.org/2000/svg">
<path fill-rule="evenodd" clip-rule="evenodd" d="M20.2962 22.6478L13.6166 0H21.8111L33.8835 39.247H25.1922L20.8243 24.4357L20.2962 22.6478ZM94.827 11.1011C97.6222 10.1395 100.544 9.59585 103.498 9.48772C99.7499 10.9982 96.1159 15.0104 94.827 18.4967V11.1011ZM106.232 19.2486C101.276 22.8177 100.157 26.4629 100.157 29.5957H100.148C100.148 33.6325 102.829 35.8434 105.787 35.8434C106.211 35.867 106.636 35.8092 107.038 35.6733C105.333 37.9491 103.283 39.9876 99.3604 39.9384C94.5158 39.878 92.4235 36.3782 92.4235 32.2474C92.4235 27.3043 96.7535 21.5512 106.232 19.2486ZM111.941 11.1013C110.645 10.4501 108.929 9.81459 105.883 9.53488C108.108 10.609 108.64 12.4618 108.64 16.5568V39.256H116.602V19.7455C116.602 13.7037 113.154 11.7099 111.941 11.1013ZM46.9291 14.0594C48.3501 11.4995 51.3105 9.56613 54.8909 9.56613V9.57284C59.3842 9.57284 63.4814 12.1305 63.4814 19.4679V39.2649H55.5174V19.0741C55.5174 15.4334 52.9016 13.6119 50.1134 13.6119C49.0364 13.613 47.9647 13.7636 46.9291 14.0594ZM37.202 12.2469V39.2559H45.166V9.56613L37.202 12.2469ZM3.28718 28.8909C2.2377 32.2743 0 39.2469 0 39.2469H8.69123L11.4973 29.2914C12.7907 24.3908 14.545 22.0793 17.1878 20.4502C10.8618 19.4679 5.51145 21.7369 3.28718 28.8909ZM81.2779 11.6921C80.8979 11.496 80.508 11.3197 80.1098 11.164H80.0919C78.5098 10.524 76.2207 9.89522 73.8756 10.3607L73.9897 10.3181C74.855 9.97699 75.7557 9.73308 76.6749 9.59089H76.7286C77.2286 9.51312 77.7332 9.46827 78.2391 9.45663C78.8134 9.44539 79.3879 9.4663 79.9599 9.51929C82.6152 9.72465 85.236 10.2506 87.765 11.0857C87.7769 13.5546 87.7911 16.0235 87.8075 18.4925C86.423 15.5878 84.1428 13.2042 81.3025 11.6921H81.2779ZM90.0496 30.6094C90.0496 24.8697 84.3221 22.4024 79.3582 20.2641C77.2469 19.3545 75.2737 18.5045 73.9381 17.4875C73.0355 16.9519 72.3316 16.1372 71.9328 15.1664C71.534 14.1955 71.4619 13.1213 71.7273 12.1058C71.8006 11.7662 71.9464 11.4464 72.1547 11.1682C71.8054 11.365 71.4677 11.5816 71.1433 11.8172H71.1276C68.7444 13.5581 67.6099 15.9883 67.6099 18.4833C67.6099 24.0681 72.9539 26.4302 77.6437 28.5032C79.6716 29.3995 81.5772 30.2418 82.8755 31.2673C86.0083 33.5542 86.6796 35.9843 86.147 37.4814C86.0913 37.6393 86.0162 37.7896 85.9233 37.9289C86.0184 37.8693 86.112 37.8054 86.2042 37.7425C86.2748 37.6944 86.3445 37.6468 86.4133 37.6022C86.5722 37.4993 86.7109 37.3963 86.8385 37.3001H86.8228C87.8418 36.511 88.6634 35.4957 89.2226 34.3346C89.7818 33.1734 90.0634 31.8981 90.0451 30.6094H90.0496ZM78.1315 38.2468C71.9174 36.291 68.8987 31.0213 68.1133 29.5377H68.111C68.2229 32.3974 68.3356 35.2587 68.4489 38.1215C73.3151 40.3035 78.8194 40.5955 83.8891 38.9405C81.9436 39.0623 79.9923 38.8272 78.1315 38.2468Z" fill="#0C1631"/>
</svg>
